# xmcd
#
# Track frame offsets:
# 150
# 17527
# 31112
# 43940
# 62085
# 74277
# 84707
# 97042
# 112552
# 126397
# 141317
# 149232
# 161767
# 177450
# 192847
# 205742
# 215200
# 226235
# 238375
# 249350
# 262392
# 269560
# 283190
#
# Disc length: 3958 seconds
#
# Revision: 0
# Processed by: cddbd v1.4PL0 Copyright (c) Steve Scherf et al.
# Submitted via: Audion 3.0.2 (http://www.panic.com/audion/)
#
DISCID=720f7417
DTITLE=Doc and Merle Watson - Lonesome Road and Look Away!
DYEAR=1900
DGENRE=
TTITLE0=I Recall A Gypsy Woman
TTITLE1=Minglewood Blues
TTITLE2=Mean Mama Blues
TTITLE3=Look Up Look Down That Lonesome Road
TTITLE4=My Creole Belle
TTITLE5=Blue Railroad Train
TTITLE6=Ain't Nobody's Fault But Mine
TTITLE7=Stone Wall (Around My Heart)
TTITLE8=I Ain't Going Honky-Tonkin' Anymore
TTITLE9=Broomstraw Philosophers And Scuppernong Wine
TTITLE10=Florida Blues
TTITLE11=Don't Think Twice, It's All Right
TTITLE12=My Love Come Rolling Down
TTITLE13=Gypsy Davie
TTITLE14='Rangement Blues
TTITLE15=You Two-Timed Me One Time Too Often
TTITLE16=Blues In My Mind
TTITLE17=It's A Crazy World
TTITLE18=Under The Double Eagle
TTITLE19=God Holds The Future
TTITLE20=Dixie
TTITLE21=New Born King
TTITLE22=Peace In The Valley
EXTD=
EXTT0=
EXTT1=
EXTT2=
EXTT3=
EXTT4=
EXTT5=
EXTT6=
EXTT7=
EXTT8=
EXTT9=
EXTT10=
EXTT11=
EXTT12=
EXTT13=
EXTT14=
EXTT15=
EXTT16=
EXTT17=
EXTT18=
EXTT19=
EXTT20=
EXTT21=
EXTT22=
PLAYORDER=
